<?xml version="1.0" encoding="utf-8"?>
<!-- Generator: Adobe Illustrator 27.5.0, SVG Export Plug-In . SVG Version: 6.00 Build 0)  -->
<svg version="1.1" xmlns="http://www.w3.org/2000/svg" xmlns:xlink="http://www.w3.org/1999/xlink" x="0px" y="0px"
	 viewBox="0 0 3710 3710" style="enable-background:new 0 0 3710 3710;" xml:space="preserve">
<g id="Background">
	<g>
		<g>
			<rect style="fill:#FFFFFF;" width="3710" height="3710"/>
		</g>
	</g>
</g>
<g id="Illustration">
	<g>
		<path style="fill:#F4F7FA;" d="M1170.826,645.009c-92.018,131.73,15.876,345.297-120.664,444.368
			c-132.911,96.439-296.189-61.637-421.449,21.377c-185.817,123.146-151.883,686.643,119.791,1036.754
			c81.701,105.29,149.968,146.258,180.203,265.336c64.923,255.692-163.249,407.793-119.828,534.255
			c97.768,284.744,1601.374,523.677,2204.688-332.072c281.772-399.671,323.931-976.799,72.177-1415.13
			C2630.826,407.838,1377.301,349.431,1170.826,645.009z"/>
		<g>
			<path style="fill:#BFC6D1;" d="M1332.762,1038.847c35.38,2.979,66.678-25.662,69.904-63.971
				c3.227-38.31-22.839-71.782-58.22-74.761c-1.833-0.154-3.648-0.173-5.456-0.162c-1.687-19.787-4.772-39.168-9.213-58.006
				c1.68-0.688,3.356-1.401,5.007-2.25c32.254-16.574,46.325-58.113,31.429-92.78c-14.896-34.669-53.118-49.336-85.372-32.763
				c-1.686,0.868-3.292,1.841-4.877,2.838c-10.531-15.901-22.192-30.876-34.885-44.798c1.173-1.526,2.328-3.079,3.398-4.735
				c20.484-31.686,13.559-74.995-15.467-96.731c-29.027-21.735-69.165-13.668-89.649,18.018c-1.05,1.625-1.979,3.295-2.885,4.976
				c-16.387-7.909-33.494-14.457-51.207-19.58c0.315-1.929,0.602-3.872,0.769-5.856c3.227-38.311,10.209-81.562-25.215-83.987
				c-81.944-5.611-99.683,34.886-102.91,73.196c-0.167,1.984-0.209,3.947-0.221,5.902c-18.321,2.089-36.283,5.684-53.761,10.74
				c-0.612-1.809-1.249-3.611-2.012-5.388c-14.896-34.667-12.206-57.793-46.063-44.804c-73.831,28.326-85.634,70.158-70.738,104.825
				c0.779,1.812,1.657,3.536,2.558,5.236c-14.843,11.602-28.846,24.416-41.887,38.333c-1.396-1.249-2.816-2.477-4.333-3.614
				c-29.026-21.736-69.164-13.668-89.649,18.021c-20.485,31.688-13.56,74.995,15.467,96.729c1.487,1.115,3.02,2.098,4.561,3.057
				c-7.53,17.83-13.812,36.421-18.786,55.649c-1.78-0.314-3.572-0.599-5.405-0.754c-35.38-2.98-66.678,25.661-69.905,63.971
				c-3.226,38.309,22.84,71.781,58.22,74.762c1.833,0.154,3.647,0.173,5.455,0.162c1.688,19.787,4.772,39.168,9.214,58.006
				c-1.68,0.688-3.356,1.401-5.008,2.248c-32.253,16.576-46.324,58.115-31.429,92.782c14.896,34.668,53.119,49.334,85.372,32.76
				c1.685-0.866,3.292-1.839,4.877-2.837c10.53,15.902,22.191,30.877,34.885,44.799c-1.174,1.526-2.327,3.078-3.398,4.734
				c-20.484,31.686-13.56,74.995,15.468,96.731c29.027,21.735,91.863,11.791,112.347-19.895c1.05-1.625-20.718-1.418-19.812-3.099
				c16.386,7.909,33.494,14.457,51.207,19.58c-0.315,1.929-0.603,3.872-0.769,5.856c-3.227,38.31,22.839,71.782,58.22,74.763
				c35.381,2.979,66.678-25.662,69.905-63.971c0.167-1.984,0.208-3.948,0.22-5.903c18.32-2.088,36.283-5.682,53.76-10.739
				c0.613,1.809,1.251,3.611,2.013,5.389c14.896,34.666,53.119,49.334,85.372,32.76c32.254-16.575,46.325-58.115,31.429-92.781
				c-0.778-1.812-1.656-3.536-2.558-5.236c14.843-11.602,28.845-24.416,41.887-38.333c1.395,1.25,2.817,2.478,4.333,3.613
				c29.027,21.735,69.164,13.67,89.649-18.019c20.485-31.688,13.559-74.995-15.468-96.733c-1.486-1.112-3.02-2.095-4.56-3.054
				c7.529-17.83,13.812-36.421,18.784-55.648C1329.137,1038.407,1330.929,1038.693,1332.762,1038.847z M968.991,1191.99
				c-128.459-10.819-223.098-132.348-211.383-271.443c11.715-139.095,125.348-243.082,253.807-232.263
				c128.46,10.82,223.1,132.348,211.384,271.444C1211.084,1098.823,1097.451,1202.81,968.991,1191.99z"/>
			<path style="fill:#BFC6D1;" d="M1334.786,839.697c32.254-16.576,46.325-58.114,31.43-92.782
				c-14.897-34.668-53.119-49.336-85.372-32.76c-1.687,0.866-3.292,1.841-4.877,2.838c-10.53-15.902-22.192-30.876-34.885-44.798
				c1.174-1.525,2.327-3.079,3.398-4.736c20.484-31.686,36.222-94.539,5.119-113.183c-59.033-35.383-89.752,2.786-110.235,34.471
				c-1.05,1.625-1.979,3.294-2.886,4.974c-16.386-7.908-33.493-14.455-51.207-19.579c0.316-1.93,0.603-3.872,0.77-5.856
				c1.756-20.85-5.209-40.222-17.585-54.07c-7.887,59.904-15.318,119.862-22.153,179.887
				c110.247,27.752,187.124,139.456,176.498,265.624c-9.004,106.914-78.248,193.016-168.129,222.255
				c0.207,11.687,0.508,23.401,0.399,35.103c-0.293,31.756-2.353,63.579-4.444,95.373c8.72-1.762,17.343-3.864,25.849-6.324
				c0.612,1.81,1.25,3.612,2.013,5.389c14.896,34.667,48.177,55.745,107.521,27.896c32.828-15.405,24.176-53.249,9.279-87.917
				c-0.778-1.811-1.656-3.536-2.557-5.236c14.843-11.604,28.844-24.417,41.886-38.333c1.396,1.249,2.817,2.478,4.334,3.613
				c29.027,21.736,94.146,9.533,114.63-22.155c20.485-31.688-11.422-70.859-40.449-92.596c-1.487-1.114-3.02-2.097-4.561-3.056
				c7.53-17.829,13.812-36.421,18.785-55.647c1.782,0.314,3.573,0.6,5.406,0.753c35.381,2.981,66.678-25.662,69.905-63.971
				c3.226-38.309-22.84-71.783-58.22-74.761c-1.834-0.154-3.648-0.173-5.455-0.161c-1.687-19.787-4.772-39.169-9.213-58.005
				C1331.458,841.259,1333.134,840.546,1334.786,839.697z"/>
			<path style="fill:#D8DEE8;" d="M1365.767,1029.622c35.38,2.98,66.677-25.66,69.905-63.97
				c3.226-38.311-22.84-71.783-58.221-74.762c-1.833-0.154-3.647-0.173-5.454-0.161c-1.688-19.788-4.772-39.169-9.213-58.007
				c1.679-0.688,3.356-1.401,5.007-2.25c32.254-16.574,46.325-58.112,31.429-92.781c-14.896-34.668-53.118-49.336-85.372-32.761
				c-1.686,0.868-3.291,1.841-4.876,2.839c-10.531-15.902-22.192-30.877-34.886-44.799c1.174-1.525,2.328-3.078,3.398-4.735
				c20.484-31.686,13.559-74.995-15.468-96.729c-29.027-21.736-69.165-13.668-89.649,18.018c-1.049,1.625-1.978,3.296-2.885,4.976
				c-16.387-7.909-33.494-14.457-51.208-19.58c0.315-1.93,0.603-3.872,0.77-5.857c3.227-38.31-22.84-71.782-58.22-74.762
				c-35.381-2.979-66.677,25.66-69.905,63.97c-0.167,1.985-0.208,3.948-0.221,5.904c-18.32,2.088-36.282,5.683-53.76,10.739
				c-0.613-1.809-1.25-3.612-2.013-5.388c-14.896-34.667-53.118-49.335-85.373-32.76c-32.253,16.574-46.325,58.114-31.429,92.781
				c0.779,1.813,1.656,3.536,2.559,5.236c-14.844,11.604-28.845,24.417-41.887,38.333c-1.396-1.249-2.816-2.477-4.334-3.615
				c-29.027-21.735-69.164-13.667-89.648,18.021c-20.485,31.688-13.559,74.995,15.467,96.731c1.487,1.114,3.02,2.097,4.561,3.056
				c-7.53,17.829-13.812,36.421-18.786,55.648c-1.78-0.314-3.572-0.599-5.405-0.753c-35.381-2.981-66.678,25.66-69.905,63.97
				c-3.226,38.31,22.839,71.782,58.22,74.762c1.833,0.155,3.647,0.173,5.455,0.161c1.688,19.787,4.772,39.169,9.213,58.006
				c-1.679,0.687-3.355,1.402-5.007,2.249c-32.254,16.576-46.325,58.114-31.429,92.782c14.896,34.668,53.119,49.334,85.372,32.76
				c1.685-0.866,3.292-1.839,4.877-2.837c10.53,15.902,22.191,30.876,34.885,44.799c-1.174,1.525-2.327,3.079-3.398,4.735
				c-20.484,31.686-13.56,74.995,15.468,96.73c29.027,21.736,69.164,13.668,89.649-18.018c1.05-1.625,1.979-3.295,2.886-4.976
				c16.385,7.908,33.494,14.456,51.207,19.58c-0.314,1.93-0.602,3.872-0.77,5.857c-3.227,38.309,22.84,71.782,58.22,74.761
				c35.38,2.98,66.678-25.661,69.904-63.971c0.168-1.984,0.209-3.947,0.221-5.903c18.321-2.088,36.283-5.682,53.76-10.739
				c0.612,1.809,1.25,3.611,2.012,5.388c14.897,34.667,53.119,49.334,85.372,32.76c32.254-16.573,46.326-58.114,31.429-92.78
				c-0.778-1.813-1.656-3.536-2.558-5.238c14.843-11.602,28.844-24.416,41.886-38.331c1.396,1.249,2.816,2.476,4.333,3.611
				c29.027,21.736,69.165,13.67,89.649-18.018c20.485-31.688,13.56-74.996-15.467-96.733c-1.487-1.111-3.02-2.095-4.561-3.054
				c7.529-17.829,13.812-36.421,18.786-55.647C1362.142,1029.182,1363.934,1029.467,1365.767,1029.622z M1001.997,1182.765
				c-128.458-10.819-223.098-132.348-211.383-271.443c11.715-139.095,125.349-243.082,253.807-232.263
				c128.459,10.819,223.099,132.348,211.383,271.443C1244.089,1089.597,1130.456,1193.584,1001.997,1182.765z"/>
		</g>
		<g>
			<path style="fill:#BFC6D1;" d="M3050.999,2422.441c43.113,3.631,81.25-31.269,85.181-77.951
				c3.933-46.682-27.83-87.469-70.943-91.1c-2.234-0.188-4.445-0.21-6.648-0.197c-2.056-24.112-5.815-47.728-11.227-70.682
				c2.047-0.838,4.089-1.707,6.102-2.742c39.303-20.197,56.449-70.813,38.297-113.057c-18.151-42.245-64.726-60.118-104.029-39.922
				c-2.054,1.057-4.011,2.243-5.942,3.459c-12.832-19.376-27.042-37.623-42.509-54.588c1.429-1.859,2.836-3.751,4.14-5.769
				c24.961-38.611,16.522-91.384-18.847-117.87c-35.371-26.485-84.28-16.655-109.241,21.956c-1.279,1.98-2.412,4.015-3.516,6.064
				c-19.968-9.637-40.813-17.616-62.398-23.859c0.384-2.351,0.734-4.719,0.938-7.136c3.932-46.683,12.44-99.386-30.726-102.341
				c-99.852-6.838-121.467,42.51-125.399,89.192c-0.204,2.417-0.254,4.81-0.269,7.192c-22.324,2.546-44.212,6.926-65.51,13.087
				c-0.746-2.203-1.522-4.4-2.452-6.565c-18.151-42.242-14.874-70.423-56.13-54.595c-89.966,34.517-104.348,85.49-86.197,127.733
				c0.948,2.207,2.019,4.308,3.118,6.38c-18.087,14.138-35.15,29.752-51.041,46.71c-1.701-1.522-3.431-3.019-5.281-4.404
				c-35.37-26.485-84.28-16.655-109.24,21.96c-24.961,38.613-16.523,91.383,18.848,117.869c1.812,1.358,3.68,2.556,5.557,3.724
				c-9.175,21.727-16.831,44.381-22.891,67.81c-2.169-0.382-4.353-0.73-6.586-0.919c-43.112-3.631-81.25,31.268-85.182,77.951
				c-3.931,46.682,27.831,87.469,70.944,91.1c2.233,0.188,4.445,0.211,6.647,0.197c2.057,24.112,5.815,47.728,11.227,70.683
				c-2.048,0.838-4.089,1.707-6.102,2.74c-39.302,20.199-56.448,70.815-38.298,113.059c18.152,42.245,64.728,60.115,104.029,39.919
				c2.054-1.055,4.012-2.24,5.943-3.457c12.831,19.378,27.042,37.625,42.509,54.59c-1.43,1.86-2.835,3.751-4.141,5.77
				c-24.961,38.611-16.522,91.384,18.848,117.87c35.37,26.485,111.938,14.367,136.899-24.243c1.28-1.98-25.246-1.728-24.142-3.777
				c19.967,9.637,40.814,17.617,62.398,23.86c-0.384,2.351-0.734,4.719-0.938,7.136c-3.932,46.682,27.83,87.469,70.943,91.101
				c43.112,3.631,81.25-31.27,85.182-77.951c0.203-2.418,0.254-4.811,0.269-7.193c22.324-2.545,44.212-6.924,65.509-13.086
				c0.746,2.204,1.523,4.4,2.453,6.566c18.152,42.241,64.727,60.115,104.03,39.919c39.303-20.197,56.449-70.816,38.297-113.057
				c-0.948-2.208-2.018-4.309-3.117-6.381c18.087-14.138,35.149-29.752,51.041-46.71c1.7,1.522,3.432,3.019,5.28,4.403
				c35.371,26.485,84.28,16.657,109.241-21.957c24.961-38.614,16.522-91.384-18.848-117.873c-1.811-1.354-3.679-2.553-5.557-3.721
				c9.174-21.727,16.831-44.381,22.89-67.81C3046.582,2421.905,3048.765,2422.253,3050.999,2422.441z M2607.729,2609.052
				c-156.532-13.184-271.854-161.271-257.579-330.765c14.275-169.493,152.742-296.205,309.274-283.021
				c156.534,13.184,271.855,161.272,257.579,330.765C2902.729,2495.524,2764.263,2622.236,2607.729,2609.052z"/>
			<path style="fill:#BFC6D1;" d="M3053.465,2179.769c39.302-20.198,56.448-70.814,38.298-113.058
				c-18.152-42.244-64.727-60.117-104.03-39.92c-2.055,1.055-4.011,2.243-5.942,3.458c-12.831-19.378-27.042-37.623-42.509-54.588
				c1.43-1.858,2.836-3.752,4.14-5.77c24.961-38.611,44.138-115.2,6.238-137.918c-71.934-43.116-109.366,3.395-134.326,42.005
				c-1.279,1.98-2.412,4.014-3.517,6.062c-19.967-9.636-40.813-17.615-62.398-23.858c0.385-2.352,0.735-4.718,0.939-7.136
				c2.14-25.406-6.348-49.012-21.429-65.887c-9.61,72.996-18.666,146.056-26.994,219.2
				c134.34,33.818,228.018,169.934,215.07,323.673c-10.972,130.279-95.348,235.198-204.872,270.827
				c0.252,14.241,0.619,28.515,0.487,42.775c-0.357,38.696-2.867,77.474-5.416,116.216c10.626-2.147,21.134-4.708,31.499-7.706
				c0.746,2.205,1.523,4.401,2.453,6.566c18.151,42.244,58.706,67.927,131.019,33.992c40.003-18.773,29.46-64.886,11.307-107.13
				c-0.948-2.207-2.018-4.308-3.116-6.38c18.087-14.139,35.148-29.753,51.04-46.71c1.701,1.522,3.433,3.018,5.281,4.402
				c35.371,26.486,114.72,11.616,139.681-26.997c24.962-38.614-13.918-86.344-49.288-112.832c-1.812-1.356-3.68-2.555-5.558-3.724
				c9.175-21.725,16.83-44.381,22.891-67.808c2.171,0.383,4.354,0.731,6.587,0.917c43.113,3.633,81.25-31.27,85.182-77.952
				c3.932-46.68-27.831-87.469-70.944-91.099c-2.234-0.188-4.445-0.211-6.647-0.196c-2.056-24.112-5.815-47.729-11.226-70.681
				C3049.409,2181.673,3051.452,2180.803,3053.465,2179.769z"/>
			<path style="fill:#D8DEE8;" d="M3091.217,2411.2c43.112,3.632,81.249-31.269,85.181-77.95
				c3.932-46.683-27.832-87.47-70.944-91.101c-2.233-0.188-4.444-0.211-6.646-0.197c-2.056-24.112-5.815-47.729-11.227-70.684
				c2.046-0.838,4.089-1.707,6.101-2.742c39.303-20.197,56.449-70.812,38.298-113.057c-18.151-42.244-64.727-60.118-104.03-39.921
				c-2.054,1.057-4.011,2.243-5.942,3.459c-12.832-19.377-27.042-37.625-42.509-54.589c1.43-1.859,2.836-3.751,4.14-5.77
				c24.961-38.61,16.523-91.383-18.848-117.869c-35.37-26.487-84.28-16.655-109.24,21.956c-1.279,1.98-2.411,4.015-3.516,6.063
				c-19.968-9.637-40.813-17.615-62.398-23.858c0.383-2.352,0.735-4.719,0.938-7.138c3.932-46.682-27.831-87.469-70.944-91.1
				c-43.113-3.631-81.249,31.268-85.181,77.95c-0.203,2.419-0.254,4.811-0.27,7.194c-22.324,2.544-44.212,6.924-65.509,13.085
				c-0.747-2.204-1.523-4.4-2.452-6.565c-18.152-42.243-64.727-60.116-104.03-39.919c-39.302,20.196-56.449,70.815-38.298,113.057
				c0.949,2.209,2.018,4.308,3.118,6.38c-18.087,14.139-35.149,29.753-51.041,46.71c-1.7-1.521-3.432-3.018-5.281-4.405
				c-35.37-26.485-84.279-16.654-109.24,21.959c-24.962,38.614-16.523,91.384,18.847,117.87c1.812,1.357,3.68,2.555,5.558,3.724
				c-9.175,21.726-16.83,44.381-22.891,67.809c-2.169-0.383-4.353-0.73-6.586-0.918c-43.113-3.632-81.25,31.268-85.182,77.95
				c-3.931,46.683,27.831,87.469,70.944,91.101c2.233,0.188,4.444,0.211,6.647,0.197c2.057,24.112,5.815,47.729,11.226,70.683
				c-2.046,0.838-4.088,1.708-6.101,2.74c-39.303,20.199-56.448,70.814-38.298,113.059c18.151,42.244,64.728,60.115,104.03,39.919
				c2.054-1.055,4.011-2.241,5.943-3.457c12.831,19.377,27.041,37.624,42.508,54.59c-1.43,1.859-2.836,3.751-4.14,5.77
				c-24.961,38.61-16.523,91.384,18.848,117.869c35.371,26.486,84.279,16.655,109.24-21.956c1.28-1.98,2.411-4.015,3.517-6.063
				c19.966,9.636,40.813,17.615,62.397,23.859c-0.383,2.352-0.734,4.718-0.938,7.137c-3.931,46.682,27.832,87.469,70.944,91.1
				c43.112,3.631,81.25-31.269,85.181-77.951c0.204-2.418,0.255-4.81,0.269-7.193c22.324-2.544,44.212-6.924,65.51-13.085
				c0.746,2.204,1.523,4.4,2.452,6.565c18.152,42.243,64.728,60.115,104.03,39.919c39.303-20.196,56.45-70.814,38.298-113.056
				c-0.949-2.209-2.018-4.309-3.117-6.382c18.087-14.138,35.148-29.752,51.04-46.709c1.701,1.521,3.432,3.018,5.281,4.401
				c35.371,26.486,84.28,16.657,109.24-21.956c24.962-38.613,16.523-91.385-18.847-117.872c-1.813-1.354-3.679-2.553-5.558-3.722
				c9.175-21.726,16.83-44.381,22.891-67.809C3086.8,2410.664,3088.983,2411.011,3091.217,2411.2z M2647.948,2597.811
				c-156.532-13.183-271.854-161.271-257.579-330.764c14.275-169.493,152.743-296.205,309.275-283.022
				c156.532,13.184,271.854,161.271,257.579,330.765C2942.948,2484.282,2804.481,2610.994,2647.948,2597.811z"/>
		</g>
		<g>
			
				<linearGradient id="SVGID_1_" gradientUnits="userSpaceOnUse" x1="-3237.5891" y1="938.5896" x2="-2978.6233" y2="1849.434" gradientTransform="matrix(0.9827 -0.1854 0.1854 0.9827 3931.9355 -542.5867)">
				<stop  offset="0" style="stop-color:#FFC444"/>
				<stop  offset="0.9964" style="stop-color:#F36F56"/>
			</linearGradient>
			<path style="fill:url(#SVGID_1_);" d="M918.527,2478.816c-74.058-84.979-49.713-254.36-0.734-360.075
				c57.183-123.425,124.992-110.531,161.995-209.981c68.895-185.162-137.916-305.789-83.247-498.026
				c44.692-157.153,199.864-136.171,241.436-312.456c29.999-127.206-36.378-199.273,26.221-301.389
				c5.351-8.729,64.414-102.047,157.043-104.64c93.49-2.617,166.495,88.719,197.334,155.472
				c57.006,123.392-21.552,181.196-7.652,352.268c18.926,232.909,175.744,263.632,154.232,438.009
				c-17.763,143.995-128.794,156.259-145.318,316.308c-15.344,148.621,74.819,192.053,54.916,291.051
				C1628.965,2473.1,1069.583,2652.15,918.527,2478.816z"/>
			<g>
				<defs>
					<path id="SVGID_00000177476650285422593160000016688103592273847439_" d="M918.527,2478.816
						c-74.058-84.979-49.713-254.36-0.734-360.075c57.183-123.425,124.992-110.531,161.995-209.981
						c68.895-185.162-137.916-305.789-83.247-498.026c44.692-157.153,199.864-136.171,241.436-312.456
						c29.999-127.206-36.378-199.273,26.221-301.389c5.351-8.729,64.414-102.047,157.043-104.64
						c93.49-2.617,166.495,88.719,197.334,155.472c57.006,123.392-21.552,181.196-7.652,352.268
						c18.926,232.909,175.744,263.632,154.232,438.009c-17.763,143.995-128.794,156.259-145.318,316.308
						c-15.344,148.621,74.819,192.053,54.916,291.051C1628.965,2473.1,1069.583,2652.15,918.527,2478.816z"/>
				</defs>
				
					<linearGradient id="SVGID_00000166649579151687839780000000042040741158990496_" gradientUnits="userSpaceOnUse" x1="871.604" y1="1620.1984" x2="1767.1771" y2="1620.1984">
					<stop  offset="0" style="stop-color:#FFC444"/>
					<stop  offset="0.9964" style="stop-color:#F36F56"/>
				</linearGradient>
				
					<use xlink:href="#SVGID_00000177476650285422593160000016688103592273847439_"  style="overflow:visible;fill:url(#SVGID_00000166649579151687839780000000042040741158990496_);"/>
				<clipPath id="SVGID_00000157305140035582494730000008762354956670125982_">
					<use xlink:href="#SVGID_00000177476650285422593160000016688103592273847439_"  style="overflow:visible;"/>
				</clipPath>
				<g style="clip-path:url(#SVGID_00000157305140035582494730000008762354956670125982_);">
					
						<linearGradient id="SVGID_00000036966832373475518340000002258063883684028333_" gradientUnits="userSpaceOnUse" x1="1022.4521" y1="1632.4576" x2="1495.9606" y2="1632.4576">
						<stop  offset="0" style="stop-color:#FFC444"/>
						<stop  offset="0.9964" style="stop-color:#F36F56"/>
					</linearGradient>
					<path style="opacity:0.7;fill:url(#SVGID_00000036966832373475518340000002258063883684028333_);" d="M1495.961,651.798
						c-129.911,211.029-132.927,356.617-105.268,454.686c34.379,121.893,109.546,188.436,92.006,295.581
						c-13.106,80.065-82.469,77.263-133.416,183.29c-42.479,88.407-35.877,172.095-30.548,239.647
						c18.639,236.253,145.302,280.497,116.613,425.997c-18.946,96.09-90.582,159.929-159.223,221.102
						c-95.299,84.928-194.471,123.224-253.672,141.017L1495.961,651.798z"/>
					
						<linearGradient id="SVGID_00000057144689029306466160000005648391898000223675_" gradientUnits="userSpaceOnUse" x1="1163.7633" y1="1364.4047" x2="1332.147" y2="1364.4047">
						<stop  offset="0" style="stop-color:#FFC444"/>
						<stop  offset="0.9964" style="stop-color:#F36F56"/>
					</linearGradient>
					<path style="opacity:0.7;fill:url(#SVGID_00000057144689029306466160000005648391898000223675_);" d="M1169.746,1100.407
						c0,0-53.99,213.343,162.401,527.995L1169.746,1100.407z"/>
					
						<linearGradient id="SVGID_00000134240413300162568910000012511682734020648106_" gradientUnits="userSpaceOnUse" x1="1333.5771" y1="1630.8563" x2="1696.7531" y2="1630.8563">
						<stop  offset="0" style="stop-color:#FFC444"/>
						<stop  offset="0.9964" style="stop-color:#F36F56"/>
					</linearGradient>
					<path style="opacity:0.7;fill:url(#SVGID_00000134240413300162568910000012511682734020648106_);" d="M1694.344,1341.719
						c0,0,55.017,379.527-360.767,578.275L1694.344,1341.719z"/>
					
						<linearGradient id="SVGID_00000160880301800638024500000018441728952266549413_" gradientUnits="userSpaceOnUse" x1="1010.0016" y1="2138.7932" x2="1352.8423" y2="2138.7932">
						<stop  offset="0" style="stop-color:#FFC444"/>
						<stop  offset="0.9964" style="stop-color:#F36F56"/>
					</linearGradient>
					<path style="opacity:0.7;fill:url(#SVGID_00000160880301800638024500000018441728952266549413_);" d="M1010.98,1871.707
						c0,0-36.856,315.061,341.862,534.172L1010.98,1871.707z"/>
					
						<linearGradient id="SVGID_00000129888262399163621490000003761780622164614590_" gradientUnits="userSpaceOnUse" x1="1388.877" y1="832.124" x2="1605.1865" y2="832.124">
						<stop  offset="0" style="stop-color:#FFC444"/>
						<stop  offset="0.9964" style="stop-color:#F36F56"/>
					</linearGradient>
					<path style="opacity:0.7;fill:url(#SVGID_00000129888262399163621490000003761780622164614590_);" d="M1592.744,580.831
						c0,0,87.963,308.572-203.867,502.587L1592.744,580.831z"/>
				</g>
			</g>
		</g>
		<g>
			<g>
				<g>
					<defs>
						<path id="SVGID_00000153694434946687438150000000931168739347175849_" d="M1591.715,2647.062
							c-22.369,1.356-72.229-15.412-83.424-25.142c-74.503-64.751-221.869-176.923-235.426-280.388
							c-2.315-17.67,72.67-48.839,80.543-66.971c42.985-31.476,59.849-39.729,86.013-89.728
							c77.244-147.608-200.904-343.77,52.955-480.027c185.948-99.806,366.061-63.642,286.005-366.643
							c-80.056-303.002,56.34-909.175,421.591-757.039c209.62,87.312,70.696,384.601,203.314,558.884
							c126.021,165.614,77.273,331.148-96.141,478.209c-173.414,147.061-53.382,211.623,36.421,374.742
							c107.872,195.942-206.445,294.483-355.438,327.599C1868.146,2347.224,1580.626,2496.073,1591.715,2647.062z"/>
					</defs>
					
						<linearGradient id="SVGID_00000178917807401249285650000004094564537034987424_" gradientUnits="userSpaceOnUse" x1="1693.4689" y1="674.681" x2="2279.8416" y2="4423.2866">
						<stop  offset="0.0036" style="stop-color:#E38DDD"/>
						<stop  offset="1" style="stop-color:#9571F6"/>
					</linearGradient>
					
						<use xlink:href="#SVGID_00000153694434946687438150000000931168739347175849_"  style="overflow:visible;fill:url(#SVGID_00000178917807401249285650000004094564537034987424_);"/>
					<clipPath id="SVGID_00000089563815917083434190000014444602319452804522_">
						<use xlink:href="#SVGID_00000153694434946687438150000000931168739347175849_"  style="overflow:visible;"/>
					</clipPath>
					<g style="clip-path:url(#SVGID_00000089563815917083434190000014444602319452804522_);">
						<g>
							<path style="fill:#FCFDFE;" d="M1394.994,2490.019l-2.854-3.814c587.622-439.877,850.588-1180.725,703.432-1981.765
								l4.689-0.863c69.74,379.637,46.026,760.237-68.579,1100.653C1911.197,1962.113,1691.034,2268.413,1394.994,2490.019z"/>
							<path style="fill:#FCFDFE;" d="M2397.744,2069.257c-199.128-25.609-512.829,32.699-699.291,129.982l-2.203-4.225
								c187.195-97.665,502.155-156.198,702.1-130.485L2397.744,2069.257z"/>
							<path style="fill:#FCFDFE;" d="M1509.358,2402.349l-3.8-2.876c65.932-87.2,85.248-204.384,57.41-348.292
								c-20.411-105.52-65.229-222.686-133.213-348.248l4.193-2.268c68.212,125.988,113.197,243.614,133.7,349.609
								C1595.754,2195.567,1576.143,2314.022,1509.358,2402.349z"/>
							<path style="fill:#FCFDFE;" d="M2046.071,1555.278l-3.945-2.676c115.825-170.76,318.118-249.228,467.425-284.987l1.11,4.637
								C2362.173,1307.814,2161.037,1385.783,2046.071,1555.278z"/>
							<path style="fill:#FCFDFE;" d="M2134.38,1091.275l-4.734,0.554c-27.078-230.866-196.507-406.444-295.09-490.555l3.093-3.627
								C1936.764,682.214,2107.112,858.792,2134.38,1091.275z"/>
						</g>
					</g>
				</g>
			</g>
		</g>
		<g>
			<g>
				<g>
					<defs>
						<path id="SVGID_00000072241341865036040920000012849964774210875547_" d="M2252.28,2791.043
							c-22.369,1.356-72.229-15.412-83.425-25.142c-74.503-64.751-221.869-176.923-235.426-280.387
							c-2.315-17.67,72.67-48.839,80.543-66.971c42.985-31.476,59.849-39.729,86.014-89.727
							c77.244-147.608-200.904-343.77,52.955-480.027c185.948-99.806,366.061-63.642,286.005-366.643
							c-80.055-303.002,56.34-909.175,421.591-757.038c209.62,87.312,70.696,384.601,203.314,558.884
							c126.021,165.614,77.273,331.148-96.141,478.209c-173.414,147.061-53.382,211.623,36.421,374.742
							c107.872,195.941-206.446,294.483-355.438,327.598C2528.712,2491.204,2241.191,2640.054,2252.28,2791.043z"/>
					</defs>
					
						<linearGradient id="SVGID_00000157308867546559455100000013654473424145270161_" gradientUnits="userSpaceOnUse" x1="2354.0339" y1="818.6618" x2="2940.4065" y2="4567.2676">
						<stop  offset="0" style="stop-color:#FF9085"/>
						<stop  offset="1" style="stop-color:#FB6FBB"/>
					</linearGradient>
					
						<use xlink:href="#SVGID_00000072241341865036040920000012849964774210875547_"  style="overflow:visible;fill:url(#SVGID_00000157308867546559455100000013654473424145270161_);"/>
					<clipPath id="SVGID_00000017493920732301994580000016943388176377056947_">
						<use xlink:href="#SVGID_00000072241341865036040920000012849964774210875547_"  style="overflow:visible;"/>
					</clipPath>
					<g style="clip-path:url(#SVGID_00000017493920732301994580000016943388176377056947_);">
						<g>
							<path style="fill:#FCFDFE;" d="M2055.559,2634l-2.854-3.814c587.622-439.877,850.588-1180.725,703.432-1981.765l4.689-0.864
								c69.74,379.637,46.026,760.237-68.579,1100.653C2571.762,2106.094,2351.599,2412.394,2055.559,2634z"/>
							<path style="fill:#FCFDFE;" d="M3058.309,2213.237c-199.128-25.609-512.829,32.699-699.291,129.983l-2.203-4.225
								c187.195-97.665,502.155-156.198,702.1-130.485L3058.309,2213.237z"/>
							<path style="fill:#FCFDFE;" d="M2169.923,2546.33l-3.801-2.876c65.932-87.2,85.248-204.384,57.41-348.291
								c-20.411-105.52-65.229-222.686-133.213-348.248l4.193-2.268c68.212,125.988,113.197,243.614,133.699,349.609
								C2256.319,2339.548,2236.708,2458.003,2169.923,2546.33z"/>
							<path style="fill:#FCFDFE;" d="M2706.636,1699.259l-3.945-2.676c115.825-170.76,318.118-249.228,467.426-284.987l1.11,4.637
								C3022.738,1451.795,2821.602,1529.764,2706.636,1699.259z"/>
							<path style="fill:#FCFDFE;" d="M2794.945,1235.255l-4.734,0.554c-27.078-230.866-196.507-406.444-295.09-490.555l3.093-3.627
								C2597.329,826.194,2767.677,1002.773,2794.945,1235.255z"/>
						</g>
					</g>
				</g>
			</g>
		</g>
		<g>
			
				<linearGradient id="SVGID_00000137110128798742163710000000168018218539933881_" gradientUnits="userSpaceOnUse" x1="1683.5403" y1="2977.5601" x2="1506.7365" y2="3051.8176">
				<stop  offset="0" style="stop-color:#40447E"/>
				<stop  offset="0.9964" style="stop-color:#3C3B6B"/>
			</linearGradient>
			<path style="fill:url(#SVGID_00000137110128798742163710000000168018218539933881_);" d="M3137.287,2880.813l-2516.859-21.92
				v64.857c0,17.604,10.978,32.573,25.845,35.24l711.692,127.716c8.446,1.516,17.011,1.918,25.534,1.199l1726.437-145.618
				c15.413-1.3,27.351-16.315,27.351-34.402V2880.813z"/>
			
				<linearGradient id="SVGID_00000149369714669484499160000001946141491630971038_" gradientUnits="userSpaceOnUse" x1="1447.4531" y1="2198.3259" x2="1255.5753" y2="2278.9146">
				<stop  offset="0" style="stop-color:#40447E"/>
				<stop  offset="0.9964" style="stop-color:#3C3B6B"/>
			</linearGradient>
			<path style="fill:url(#SVGID_00000149369714669484499160000001946141491630971038_);" d="M2327.078,2775.675l-1678.949,118.65
				c-30.044,2.123-54.471-20.437-54.471-50.396V1643.68c0-29.958,24.428-54.245,54.471-54.245h1678.949
				c24.751,0,44.764,21.954,44.764,49.037v1085.003C2371.842,2750.556,2351.83,2773.925,2327.078,2775.675z"/>
			
				<linearGradient id="SVGID_00000043436360351149072650000018126270128608683188_" gradientUnits="userSpaceOnUse" x1="620.4285" y1="2241.9492" x2="2398.6133" y2="2241.9492">
				<stop  offset="0" style="stop-color:#40447E"/>
				<stop  offset="0.9964" style="stop-color:#3C3B6B"/>
			</linearGradient>
			<path style="fill:url(#SVGID_00000043436360351149072650000018126270128608683188_);" d="M2353.849,2775.675L674.9,2894.325
				c-30.044,2.123-54.472-20.437-54.472-50.396V1643.68c0-29.958,24.427-54.245,54.472-54.245h1678.949
				c24.752,0,44.764,21.954,44.764,49.037v1085.003C2398.613,2750.556,2378.601,2773.925,2353.849,2775.675z"/>
			
				<linearGradient id="SVGID_00000152958008750159835610000008649466392318624442_" gradientUnits="userSpaceOnUse" x1="2107.623" y1="1356.5421" x2="662.4946" y2="3376.0142">
				<stop  offset="0.0036" style="stop-color:#E38DDD"/>
				<stop  offset="1" style="stop-color:#9571F6"/>
			</linearGradient>
			<path style="fill:url(#SVGID_00000152958008750159835610000008649466392318624442_);" d="M2301.545,2699.18L737.78,2802.244
				c-24.449,1.611-44.317-16.906-44.317-41.363v-1050.82c0-24.456,19.868-44.366,44.317-44.467l1563.765-6.471
				c20.418-0.085,36.934,17.905,36.934,40.181v957.109C2338.479,2678.688,2321.963,2697.835,2301.545,2699.18z"/>
			<path style="fill:#FFFFFF;" d="M1573.67,1622.265c0,11.152-8.641,20.219-19.312,20.252c-10.685,0.033-19.355-9.002-19.355-20.18
				c0-11.178,8.671-20.245,19.355-20.252C1565.029,1602.077,1573.67,1611.112,1573.67,1622.265z"/>
			
				<linearGradient id="SVGID_00000175322465438020908440000018010856726247485357_" gradientUnits="userSpaceOnUse" x1="620.4285" y1="2899.5149" x2="3137.2871" y2="2899.5149">
				<stop  offset="0" style="stop-color:#40447E"/>
				<stop  offset="0.9964" style="stop-color:#3C3B6B"/>
			</linearGradient>
			<path style="fill:url(#SVGID_00000175322465438020908440000018010856726247485357_);" d="M2311.956,2770.294L620.429,2895.185
				l737.537,132.354c8.446,1.516,17.011,1.918,25.534,1.199l1753.787-147.924l-798.424-109.67
				C2329.934,2769.916,2320.928,2769.632,2311.956,2770.294z"/>
			
				<linearGradient id="SVGID_00000128466572218400145620000008479610508971262385_" gradientUnits="userSpaceOnUse" x1="867.2486" y1="2878.8933" x2="2711.3352" y2="2878.8933">
				<stop  offset="0" style="stop-color:#40447E"/>
				<stop  offset="0.9964" style="stop-color:#3C3B6B"/>
			</linearGradient>
			<polygon style="opacity:0.3;fill:url(#SVGID_00000128466572218400145620000008479610508971262385_);" points="867.249,2898.325 
				2275.495,2792.801 2711.335,2852.184 1315.22,2964.986 			"/>
			<path style="opacity:0.48;fill:#FFFFFF;" d="M1949.333,2446.488c-129.432-69.641-231.204,18.602-329.421-68.463
				c-59.546-52.784-30.311-92.146-103.581-171.027c-81.151-87.367-133.986-57.999-215.542-136.629
				c-103.122-99.423-51.546-176.777-140.374-248.16c-107.759-86.597-223.972-6.446-326.552-89.496
				c-44.244-35.82-68.518-87.895-81.195-143.278H652.3c-17.588,0-31.871,14.255-31.871,31.84v1244.162
				c0,17.585,14.283,30.826,31.871,29.578l1711.124-121.459c8.397-0.596,15.843-5.499,20.622-12.607
				c-125.259-4.565-202.212-46.556-251.403-89.965C2036.413,2586.064,2053.104,2502.321,1949.333,2446.488z"/>
		</g>
		<g>
			<path style="fill:#EBEFF2;" d="M1023.209,754.334v708.542c0,23.524,19.919,42.707,44.46,42.848l1458.036,8.349
				c22.546,0.129,40.802-18.011,40.802-40.519V795.619L1023.209,754.334z"/>
			
				<linearGradient id="SVGID_00000038402901135626048590000007805755451104876422_" gradientUnits="userSpaceOnUse" x1="1913.9889" y1="562.9288" x2="1271.7059" y2="1612.9225">
				<stop  offset="0" style="stop-color:#FFC444"/>
				<stop  offset="0.9964" style="stop-color:#F36F56"/>
			</linearGradient>
			<path style="fill:url(#SVGID_00000038402901135626048590000007805755451104876422_);" d="M2525.706,708.364L1067.67,665.688
				c-24.542-0.718-44.46,17.768-44.46,41.292v72.602l1543.299,40.195V750.31C2566.508,727.803,2548.252,709.024,2525.706,708.364z"
				/>
			<g>
				<g>
					<g>
						
							<linearGradient id="SVGID_00000170242217898207813870000006617176533285727403_" gradientUnits="userSpaceOnUse" x1="-6931.0029" y1="883.4984" x2="-6669.6553" y2="1807.5491" gradientTransform="matrix(-1 0.0013 0.0013 1 -5324.9741 3.598)">
							<stop  offset="0" style="stop-color:#FFC444"/>
							<stop  offset="0.9964" style="stop-color:#F36F56"/>
						</linearGradient>
						<path style="fill:url(#SVGID_00000170242217898207813870000006617176533285727403_);" d="M1386.007,1137.207l81.311-272.731
							c122.641,41.186,211.009,154.108,211.666,285.231L1386.007,1137.207z"/>
					</g>
					<g>
						<path style="fill:#FFFFFF;" d="M1603.502,1165.754c-4.536,62.396-35.48,117.402-82.153,154.744l-127.483-163.837
							L1603.502,1165.754z"/>
						<path style="fill:#FFFFFF;" d="M1367.801,1127.52c-49.356-46.471-108.991-102.742-156.477-147.749
							c42.123-37.722,98.974-60.142,161.352-58.751c18.889,0.422,37.233,3.005,54.782,7.494L1367.801,1127.52z"/>
						<path style="fill:#FFFFFF;" d="M1357.513,1144.553l-179.428,124.424c-25.178-36.35-39.886-79.935-39.886-126.622
							c0-57.576,22.362-109.71,59.135-148.913c13.164,12.466,27.792,26.298,43.817,41.432
							C1289.639,1080.67,1338.288,1126.464,1357.513,1144.553z"/>
						<path style="fill:#FFFFFF;" d="M1362.697,1164.902l-3.46,205.762c-68.183-4.399-128.76-37.032-169.201-85.915
							L1362.697,1164.902z"/>
						<path style="fill:#FFFFFF;" d="M1382.52,1173.911l123.104,158.099c-35.898,23.994-79.354,38.325-126.419,39.127
							L1382.52,1173.911z"/>
					</g>
				</g>
				<polygon style="fill:#BFC8D6;" points="2460.571,1013.604 1720.257,998.567 1720.257,929.251 2460.571,945.752 				"/>
				<polygon style="fill:#BFC8D6;" points="2460.571,1136.381 1720.257,1123.995 1720.257,1054.68 2460.571,1068.53 				"/>
				<polygon style="fill:#BFC8D6;" points="2460.571,1259.159 1720.257,1249.424 1720.257,1180.108 2460.571,1191.308 				"/>
				<polygon style="fill:#BFC8D6;" points="2460.571,1381.936 1720.257,1374.852 1720.257,1305.536 2460.571,1314.085 				"/>
			</g>
			<path style="fill:#FFFFFF;" d="M1125.201,724.019c0,10.428-8.813,18.642-19.689,18.347c-10.883-0.296-19.711-8.998-19.711-19.438
				c0-10.441,8.828-18.654,19.711-18.347C1116.388,704.888,1125.201,713.59,1125.201,724.019z"/>
		</g>
		<g>
			<g>
				<path style="fill:#EBEFF2;" d="M1023.209,1714.745v708.543c0,23.524,19.919,42.171,44.46,41.652l1458.037-30.847
					c22.546-0.477,40.802-19.108,40.802-41.615v-677.935L1023.209,1714.745z"/>
				
					<linearGradient id="SVGID_00000036952277865172834100000010045347369170893955_" gradientUnits="userSpaceOnUse" x1="1918.6473" y1="1494.8998" x2="1249.9751" y2="2588.0342">
					<stop  offset="0" style="stop-color:#FF9085"/>
					<stop  offset="1" style="stop-color:#FB6FBB"/>
				</linearGradient>
				<path style="fill:url(#SVGID_00000036952277865172834100000010045347369170893955_);" d="M2525.706,1628.384l-1458.037-3.48
					c-24.541-0.058-44.46,18.963-44.46,42.486v72.603l1543.299-1.293v-69.467
					C2566.508,1646.726,2548.252,1628.437,2525.706,1628.384z"/>
				<path style="fill:#FFFFFF;" d="M1125.2,1681.688c0,10.428-8.813,18.88-19.689,18.877c-10.883-0.003-19.711-8.468-19.711-18.908
					c0-10.44,8.828-18.891,19.711-18.877C1116.387,1662.794,1125.2,1671.259,1125.2,1681.688z"/>
			</g>
			<g>
				<polygon style="fill:#FFFFFF;" points="1329.791,2367.09 1217.583,2369.171 1217.583,1840.274 1329.791,1839.863 				"/>
				
					<linearGradient id="SVGID_00000084503870410018537060000002198127767159255979_" gradientUnits="userSpaceOnUse" x1="1331.7153" y1="2061.488" x2="1193.9666" y2="2491.3604">
					<stop  offset="0" style="stop-color:#FF9085"/>
					<stop  offset="1" style="stop-color:#FB6FBB"/>
				</linearGradient>
				<polygon style="fill:url(#SVGID_00000084503870410018537060000002198127767159255979_);" points="1329.791,2367.09 
					1217.583,2369.171 1217.583,2118.063 1329.791,2116.774 				"/>
				<polygon style="fill:#FFFFFF;" points="1484.734,2364.216 1373.506,2366.279 1373.506,1839.702 1484.734,1839.295 				"/>
				
					<linearGradient id="SVGID_00000076574917347038070030000000587320826008859058_" gradientUnits="userSpaceOnUse" x1="1461.7925" y1="2200.7856" x2="1384.2531" y2="2442.7629">
					<stop  offset="0" style="stop-color:#FF9085"/>
					<stop  offset="1" style="stop-color:#FB6FBB"/>
				</linearGradient>
				<polygon style="fill:url(#SVGID_00000076574917347038070030000000587320826008859058_);" points="1484.734,2364.216 
					1373.506,2366.279 1373.506,2241.275 1484.734,2239.605 				"/>
				<polygon style="fill:#FFFFFF;" points="1638.327,2361.366 1528.068,2363.412 1528.068,1839.136 1638.327,1838.732 				"/>
				
					<linearGradient id="SVGID_00000127023754720312689240000001196290758743134376_" gradientUnits="userSpaceOnUse" x1="1603.8381" y1="2265.3052" x2="1554.8672" y2="2418.1289">
					<stop  offset="0" style="stop-color:#FF9085"/>
					<stop  offset="1" style="stop-color:#FB6FBB"/>
				</linearGradient>
				<polygon style="fill:url(#SVGID_00000127023754720312689240000001196290758743134376_);" points="1638.327,2361.366 
					1528.068,2363.412 1528.068,2298.072 1638.327,2296.231 				"/>
				<polygon style="fill:#FFFFFF;" points="1790.588,2358.542 1681.284,2360.57 1681.284,1838.574 1790.588,1838.173 				"/>
				
					<linearGradient id="SVGID_00000151539758448676529950000013982951458402508416_" gradientUnits="userSpaceOnUse" x1="1825.4199" y1="1875.8423" x2="1612.9829" y2="2538.7942">
					<stop  offset="0" style="stop-color:#FF9085"/>
					<stop  offset="1" style="stop-color:#FB6FBB"/>
				</linearGradient>
				<polygon style="fill:url(#SVGID_00000151539758448676529950000013982951458402508416_);" points="1790.588,2358.542 
					1681.284,2360.57 1681.284,1951.647 1790.588,1950.894 				"/>
				<polygon style="fill:#FFFFFF;" points="1941.533,2355.742 1833.173,2357.752 1833.173,1838.017 1941.533,1837.621 				"/>
				
					<linearGradient id="SVGID_00000000904934734484264650000005887555218137973897_" gradientUnits="userSpaceOnUse" x1="1967.1399" y1="1927.3149" x2="1777.7301" y2="2518.4058">
					<stop  offset="0" style="stop-color:#FF9085"/>
					<stop  offset="1" style="stop-color:#FB6FBB"/>
				</linearGradient>
				<polygon style="fill:url(#SVGID_00000000904934734484264650000005887555218137973897_);" points="1941.533,2355.742 
					1833.173,2357.752 1833.173,1996.868 1941.533,1995.978 				"/>
				<polygon style="fill:#FFFFFF;" points="2091.181,2352.966 1983.752,2354.959 1983.752,1837.466 2091.181,1837.072 				"/>
				
					<linearGradient id="SVGID_00000116933055598604207120000010806359917156892326_" gradientUnits="userSpaceOnUse" x1="2133.5105" y1="1833.1136" x2="1905.5002" y2="2544.6646">
					<stop  offset="0" style="stop-color:#FF9085"/>
					<stop  offset="1" style="stop-color:#FB6FBB"/>
				</linearGradient>
				<polygon style="fill:url(#SVGID_00000116933055598604207120000010806359917156892326_);" points="2091.181,2352.966 
					1983.752,2354.959 1983.752,1912.709 2091.181,1912.083 				"/>
				<polygon style="fill:#FFFFFF;" points="2239.547,2350.214 2133.038,2352.19 2133.038,1836.918 2239.547,1836.528 				"/>
				
					<linearGradient id="SVGID_00000050664137917303107650000014142471103137720464_" gradientUnits="userSpaceOnUse" x1="2257.0542" y1="1972.1255" x2="2089.0762" y2="2496.3342">
					<stop  offset="0" style="stop-color:#FF9085"/>
					<stop  offset="1" style="stop-color:#FB6FBB"/>
				</linearGradient>
				<polygon style="fill:url(#SVGID_00000050664137917303107650000014142471103137720464_);" points="2239.547,2350.214 
					2133.038,2352.19 2133.038,2035.688 2239.547,2034.686 				"/>
				<polygon style="fill:#FFFFFF;" points="2386.649,2347.485 2281.047,2349.444 2281.047,1836.376 2386.649,1835.989 				"/>
				
					<linearGradient id="SVGID_00000166663914202004969760000010530651691760816005_" gradientUnits="userSpaceOnUse" x1="2376.7944" y1="2125.3782" x2="2274.8613" y2="2443.4807">
					<stop  offset="0" style="stop-color:#FF9085"/>
					<stop  offset="1" style="stop-color:#FB6FBB"/>
				</linearGradient>
				<polygon style="fill:url(#SVGID_00000166663914202004969760000010530651691760816005_);" points="2386.649,2347.485 
					2281.047,2349.444 2281.047,2171.317 2386.649,2169.904 				"/>
			</g>
		</g>
		<g>
			
				<linearGradient id="SVGID_00000037667498279270840210000017884170768848787373_" gradientUnits="userSpaceOnUse" x1="2870.5063" y1="2930.9727" x2="2893.0466" y2="3217.8467" gradientTransform="matrix(1 0 0 1 -626.2627 0)">
				<stop  offset="0.0036" style="stop-color:#26264F"/>
				<stop  offset="1" style="stop-color:#444B8C"/>
			</linearGradient>
			<path style="fill:url(#SVGID_00000037667498279270840210000017884170768848787373_);" d="M2288.205,3074.043
				c0,0-90.733,41.238-92.214,47.82c-1.483,6.583,58.35-2.207,82.775-1.258c24.425,0.95,44.518-6.269,42.307-16.614
				c-2.212-10.347-10.761-36.368-10.761-36.368L2288.205,3074.043z"/>
			
				<linearGradient id="SVGID_00000059993022549192706830000017685801903784980153_" gradientUnits="userSpaceOnUse" x1="2928.696" y1="3090.6858" x2="2924.5981" y2="2793.575" gradientTransform="matrix(1 0 0 1 -626.2627 0)">
				<stop  offset="0" style="stop-color:#AB316D"/>
				<stop  offset="1" style="stop-color:#792D3D"/>
			</linearGradient>
			<path style="fill:url(#SVGID_00000059993022549192706830000017685801903784980153_);" d="M2284.884,3040.578l5.519,40.85
				c0,0,14.364,5.114,24.012-0.931l4.117-44.805L2284.884,3040.578z"/>
			
				<linearGradient id="SVGID_00000059296431097917653680000011466446545873826192_" gradientUnits="userSpaceOnUse" x1="3296.4583" y1="2897.509" x2="3318.9978" y2="3184.377" gradientTransform="matrix(1 0 0 1 -626.2627 0)">
				<stop  offset="0.0036" style="stop-color:#26264F"/>
				<stop  offset="1" style="stop-color:#444B8C"/>
			</linearGradient>
			<path style="fill:url(#SVGID_00000059296431097917653680000011466446545873826192_);" d="M2712.174,3041.557l10.554,16.943
				c2.953,4.737,3.832,10.442,2.416,15.842c-3.689,14.089-11.061,41.546-14.274,48.705c-4.379,9.752-63.093,15.545-63.093,15.545
				s-5.236-7.368,6.955-16.268c12.19-8.896,20.026-10.298,24.329-23.432c4.3-13.131,7.171-50.279,7.171-50.279L2712.174,3041.557z"
				/>
			
				<linearGradient id="SVGID_00000108273328624098454550000008932430649956550533_" gradientUnits="userSpaceOnUse" x1="3319.0613" y1="3085.3013" x2="3314.9634" y2="2788.186" gradientTransform="matrix(1 0 0 1 -626.2627 0)">
				<stop  offset="0" style="stop-color:#AB316D"/>
				<stop  offset="1" style="stop-color:#792D3D"/>
			</linearGradient>
			<path style="fill:url(#SVGID_00000108273328624098454550000008932430649956550533_);" d="M2668.247,2998.503
				c3.855,3.073,22.712,60.311,22.712,60.311s6.105,7.806,17.702-3.713c11.594-11.52,5.246-5.167,5.246-5.167l-2.173-56.297
				L2668.247,2998.503z"/>
			
				<linearGradient id="SVGID_00000129886061332941881320000007103834173788791719_" gradientUnits="userSpaceOnUse" x1="2231.5264" y1="2609.3701" x2="2451.2036" y2="2609.3701">
				<stop  offset="0" style="stop-color:#311944"/>
				<stop  offset="1" style="stop-color:#6B3976"/>
			</linearGradient>
			<path style="fill:url(#SVGID_00000129886061332941881320000007103834173788791719_);" d="M2234.962,2219.856
				c-4.787,121.857-4.981,254.249,2.031,395.684c7.893,159.268,23.758,306.472,43.751,439.91c7.432,0.239,15.242,0.278,23.401,0.048
				c5.508-0.153,10.847-0.42,16.005-0.776c10.375-27.67,22.639-64.057,33.62-107.519c11.545-45.7,18.511-86.694,23.473-125.894
				c17.472-138.021-3.003-150.062,11.177-252.348c12.557-90.591,30.417-94.128,51.381-222.745
				c22.747-139.555,5.813-160.491-2.421-168.054C2402.324,2145.964,2319.978,2167.884,2234.962,2219.856z"/>
			
				<linearGradient id="SVGID_00000104674733314882666740000011863668243963016117_" gradientUnits="userSpaceOnUse" x1="2246.7166" y1="2609.3794" x2="2451.2029" y2="2609.3794">
				<stop  offset="0.0036" style="stop-color:#26264F"/>
				<stop  offset="1" style="stop-color:#444B8C"/>
			</linearGradient>
			<path style="opacity:0.3;fill:url(#SVGID_00000104674733314882666740000011863668243963016117_);" d="M2437.38,2178.164
				c-33.436-30.712-109.901-12.119-190.663,34.753c92.909,100.38,103.037,165.499,91.9,207.75
				c-12.589,47.754-50.86,61.507-50.715,113.724c0.179,64.167,58.093,81.166,56.862,149.068
				c-0.815,44.9-26.262,44.435-32.272,99.891c-7.111,65.617,26.135,88.227,15.367,136.775
				c-4.633,20.887-17.856,48.178-55.513,76.293c2.714,19.936,5.498,39.672,8.4,59.035c7.429,0.234,15.24,0.276,23.398,0.043
				c5.508-0.152,10.848-0.419,16.004-0.775c10.376-27.67,22.64-64.055,33.621-107.517c11.545-45.702,18.511-86.695,23.473-125.896
				c17.471-138.02-3.003-150.062,11.177-252.348c12.557-90.591,30.417-94.13,51.381-222.746
				C2462.546,2206.66,2445.614,2185.724,2437.38,2178.164z"/>
			
				<linearGradient id="SVGID_00000032633119110441095030000008738720311025143212_" gradientUnits="userSpaceOnUse" x1="2292.5132" y1="2587.7158" x2="2734.7476" y2="2587.7158">
				<stop  offset="0" style="stop-color:#311944"/>
				<stop  offset="1" style="stop-color:#6B3976"/>
			</linearGradient>
			<path style="fill:url(#SVGID_00000032633119110441095030000008738720311025143212_);" d="M2292.513,2217.809
				c79.998,117.055,166.286,262.735,243.452,437.108c58.315,131.774,100.611,255.498,131.663,365.763
				c4.201,1.945,14.114,5.827,26.78,4.152c17.276-2.284,27.63-13.312,30.336-16.389c12.639-79.046,11.245-145.99,6.955-194.306
				c-2.746-30.935-7.606-82.45-27.325-146.045c-22.083-71.237-37.269-75.241-66.082-150.606
				c-29.906-78.228-22.662-97.75-51.302-195.645c-11.764-40.216-31.46-100.063-63.958-171.649
				C2446.193,2172.728,2369.352,2195.269,2292.513,2217.809z"/>
			
				<linearGradient id="SVGID_00000170247831071206944380000008068608663102390916_" gradientUnits="userSpaceOnUse" x1="-1610.6753" y1="1314.6787" x2="-1731.9554" y2="1678.5203" gradientTransform="matrix(-0.9998 0.0218 0.0218 0.9998 210.2509 0.1062)">
				<stop  offset="0" style="stop-color:#AB316D"/>
				<stop  offset="1" style="stop-color:#792D3D"/>
			</linearGradient>
			<path style="fill:url(#SVGID_00000170247831071206944380000008068608663102390916_);" d="M1914.125,1384.576
				c0,0-15.523-18.579-25.416-32.42c-9.892-13.842-55.509-52.345-55.509-52.345s-3.273,6.339,6.578,16.153
				c9.854,9.813,30.503,26.551,26,33.92c-4.504,7.371-17.487,14.064-7.718,27.581c9.771,13.517,26.035,3.786,34.693,14.611
				c8.66,10.824,17.547,22.644,17.547,22.644L1914.125,1384.576z"/>
			
				<linearGradient id="SVGID_00000154389411461019823940000013600537691783411366_" gradientUnits="userSpaceOnUse" x1="2095.3601" y1="1625.3846" x2="2302.8042" y2="2485.4822" gradientTransform="matrix(0.9998 -0.0218 0.0218 0.9998 31.9022 3.95)">
				<stop  offset="0" style="stop-color:#AA80F9"/>
				<stop  offset="0.9964" style="stop-color:#6165D7"/>
			</linearGradient>
			<path style="fill:url(#SVGID_00000154389411461019823940000013600537691783411366_);" d="M1916.307,1365.06
				c-10.358,12.995-20.716,25.991-31.073,38.985c13.243,57.299,41.475,143.642,107.114,227.513
				c69.573,88.897,217.972,222.035,310.353,178.389c56.307-26.602,132.324-117.892,105.009-161.906
				c-26.26-42.315-139.903-22.312-217.949-39.941C2113.258,1590.82,2013.964,1535.138,1916.307,1365.06z"/>
			
				<linearGradient id="SVGID_00000093894431998074050900000002133496290365001637_" gradientUnits="userSpaceOnUse" x1="2419.8843" y1="1914.1593" x2="2590.6902" y2="1914.1593" gradientTransform="matrix(0.9998 -0.0218 0.0218 0.9998 31.9022 3.95)">
				<stop  offset="0" style="stop-color:#AA80F9"/>
				<stop  offset="0.9964" style="stop-color:#6165D7"/>
			</linearGradient>
			<path style="fill:url(#SVGID_00000093894431998074050900000002133496290365001637_);" d="M2629.603,1702.999
				c0,0,60.534,206.032,23.033,285.307c-37.501,79.275-157.085-7.783-157.085-7.783L2629.603,1702.999z"/>
			
				<linearGradient id="SVGID_00000173853644163853918920000017763762518436708480_" gradientUnits="userSpaceOnUse" x1="2408.6792" y1="1914.1592" x2="2579.4849" y2="1914.1592" gradientTransform="matrix(0.9998 -0.0218 0.0218 0.9998 31.9022 3.95)">
				<stop  offset="0" style="stop-color:#AA80F9"/>
				<stop  offset="0.9964" style="stop-color:#6165D7"/>
			</linearGradient>
			<path style="opacity:0.3;fill:url(#SVGID_00000173853644163853918920000017763762518436708480_);" d="M2618.4,1703.243
				c0,0,60.533,206.032,23.033,285.308c-37.501,79.274-157.085-7.784-157.085-7.784L2618.4,1703.243z"/>
			
				<linearGradient id="SVGID_00000094605364815425153450000013659477641572050345_" gradientUnits="userSpaceOnUse" x1="2268.0779" y1="1583.7275" x2="2475.5217" y2="2443.8242" gradientTransform="matrix(0.9998 -0.0218 0.0218 0.9998 31.9022 3.95)">
				<stop  offset="0" style="stop-color:#AA80F9"/>
				<stop  offset="0.9964" style="stop-color:#6165D7"/>
			</linearGradient>
			<path style="fill:url(#SVGID_00000094605364815425153450000013659477641572050345_);" d="M2441.365,1626.812
				c-77.758-1.414-137.644,1.124-170.751,35.683c-34.967,36.504,2.036,76.045-3.689,169.659
				c-8.764,143.321-99.166,180.263-102.861,325.551c-1.246,48.954,7.9,88.744,14.853,112.675
				c20.551,24.48,54.064,58.93,103.033,87.279c71.26,41.254,111.88,32.905,213.481,58.345
				c166.191,41.612,182.063,95.136,263.682,79.632c82.488-15.669,153.605-86.925,143.998-124.993
				c-5.755-22.798-38.988-15.58-78.175-49.69c-50.506-43.96-32.344-87.37-71.052-134.949
				c-55.598-68.341-130.018-24.199-177.419-83.447c-47.948-59.933-32.075-180.439,5.796-246.761
				c24.736-43.319,34.634-93.667,55.499-138.978c1.733-3.764,3.707-9.918,2.612-17.534c-4.181-29.122-53.199-43.899-90.318-54.715
				C2493.443,1628.072,2447.761,1626.926,2441.365,1626.812z"/>
			
				<linearGradient id="SVGID_00000016073410964791289650000005475284624559143867_" gradientUnits="userSpaceOnUse" x1="1066.9152" y1="1608.4237" x2="1134.3762" y2="1715.6483" gradientTransform="matrix(0.9998 -0.0218 0.0218 0.9998 1281.1685 -23.2851)">
				<stop  offset="0" style="stop-color:#FF9085"/>
				<stop  offset="1" style="stop-color:#FB6FBB"/>
			</linearGradient>
			<path style="fill:url(#SVGID_00000016073410964791289650000005475284624559143867_);" d="M2365.675,1625.248l15.219-5.049
				c0,0,4.46,20.658,53.784,22.175c27.344-0.596,44.689-16.302,44.689-16.302l10.635,7.403c0,0-22.344,29.193-58.89,29.26
				C2383.946,1662.82,2365.675,1625.248,2365.675,1625.248z"/>
			<g>
				
					<linearGradient id="SVGID_00000132064025771716902070000001008783667580573318_" gradientUnits="userSpaceOnUse" x1="1917.6705" y1="2343.6755" x2="1838.7032" y2="2471.4167" gradientTransform="matrix(0.9519 -0.3063 0.3063 0.9519 -104.9425 -119.7459)">
					<stop  offset="0" style="stop-color:#AB316D"/>
					<stop  offset="1" style="stop-color:#792D3D"/>
				</linearGradient>
				<path style="fill:url(#SVGID_00000132064025771716902070000001008783667580573318_);" d="M2378.156,1558.552
					c-4.171-22.599,8.506-42.015,11.29-46.196c11.66-17.495,14.446-19.776,19.498-22.53l6.99-3.479c0,0,0.398-0.118,0.813-0.224
					c4.385-1.124,18.899-0.241,21.774,0.652c9.185,2.857,15.673,41.927,7.899,95.621c0.372,4.215,0.744,8.431,1.113,12.645
					c20.907-2.891,26.958-0.897,28.031,1.902c2.325,6.066-12.237,41.496-32.151,48.471c-24.974,8.746-59.764-14.063-61.854-22.314
					c-0.846-3.339-0.697-0.47,16.31-10.318c1.566-4.937,6.429-18.307,7.994-23.244
					C2402.256,1587.228,2381.228,1575.199,2378.156,1558.552z"/>
				
					<linearGradient id="SVGID_00000126321302248784323100000010356284434519442865_" gradientUnits="userSpaceOnUse" x1="1163.3624" y1="2017.1376" x2="1091.6091" y2="2133.2092" gradientTransform="matrix(0.8526 -0.5224 0.5224 0.8526 362.7311 402.2268)">
					<stop  offset="0" style="stop-color:#AB316D"/>
					<stop  offset="1" style="stop-color:#792D3D"/>
				</linearGradient>
				<path style="fill:url(#SVGID_00000126321302248784323100000010356284434519442865_);" d="M2406.653,1540.367
					c4.611-5.257,11.326,0.691,10.703,7.978c-0.623,7.287-8.37,14.215-15.086,12.151
					C2395.555,1558.431,2400.448,1547.439,2406.653,1540.367z"/>
				<path style="fill:#26264F;" d="M3146.865,1302.02c-101.431-57.383-269.148,21.283-345.082,118.025
					c-35.284,44.953-46.848,88.36-99.146,108.522c-39.757,15.328-109.079,20.834-157.126-12.115
					c-6.053-4.151-30.608-21.828-65.687-42.796c-15.465-9.243-30.611-17.713-48.938-14.833c-4.655,0.732-20.171,3.078-26.854,15.737
					c-5.417,10.257-3.036,24.296,2.411,33.214c3.259,5.332,5.262,5.361,6.223,9.229c2.699,10.868-15.181,21.734-12.378,26.743
					c2.001,3.58,11.632-1.066,14.914,3.179c3.597,4.653-6.017,12.746-6.514,27.515c-6.992,8.835-7.844,25.494-3.399,45.987
					c6.536,30.126,17.106,52.911,28.392,69.002c54.334,77.472,93.2,132.886,150.385,152.411
					c75.708,25.852,117.172-33.858,270.365-90.495c209.767-77.551,286.001-22.523,346.573-96.446
					C3276.634,1562.594,3252.176,1361.597,3146.865,1302.02z"/>
			</g>
			<g style="opacity:0.3;">
				
					<linearGradient id="SVGID_00000182517456545950155400000008589286259756734141_" gradientUnits="userSpaceOnUse" x1="2219.4204" y1="1595.4636" x2="2426.8643" y2="2455.5605" gradientTransform="matrix(0.9998 -0.0218 0.0218 0.9998 31.9022 3.95)">
					<stop  offset="0" style="stop-color:#AA80F9"/>
					<stop  offset="0.9964" style="stop-color:#6165D7"/>
				</linearGradient>
				<path style="fill:url(#SVGID_00000182517456545950155400000008589286259756734141_);" d="M2700.712,2372.615
					c-78.196-51.956-148.982,7.475-204.261-38.299c-45.524-37.697-8.195-86.848-57.448-153.196
					c-54.008-72.751-128.952-54.146-146.813-108.514c-18.46-56.19,55.599-94.324,57.448-172.345
					c0.944-39.817-16.933-91.673-88.347-153.87c3.853,22.696,7.8,50.358,5.635,85.762
					c-8.765,143.321-99.167,180.263-102.861,325.551c-1.246,48.954,7.9,88.744,14.853,112.675
					c20.551,24.48,54.064,58.93,103.033,87.279c71.26,41.253,111.88,32.905,213.482,58.345
					c166.191,41.612,182.063,95.136,263.681,79.632c23.773-4.515,46.586-13.664,66.811-25.288
					c-23.771-3.699-41.49-11.784-54.998-21.135C2735.216,2424.491,2741.489,2399.708,2700.712,2372.615z"/>
			</g>
		</g>
		<g>
			<path style="fill:#EBEFF2;" d="M752.799,2543.565v299.644c0,9.948,9.462,17.361,21.102,16.559l1317.361-90.736
				c7.839-0.54,14.179-7.57,14.179-15.704v-244.986L752.799,2543.565z"/>
			
				<linearGradient id="SVGID_00000078028989744307466200000010869896023593138308_" gradientUnits="userSpaceOnUse" x1="1390.7506" y1="2375.5471" x2="1555.9181" y2="3006.4875">
				<stop  offset="0" style="stop-color:#FFC444"/>
				<stop  offset="0.9964" style="stop-color:#F36F56"/>
			</linearGradient>
			<path style="fill:url(#SVGID_00000078028989744307466200000010869896023593138308_);" d="M2091.262,2477.539l-1317.361,27.546
				c-11.64,0.243-21.102,8.505-21.102,18.453v30.704l1352.643-37.17v-25.103C2105.442,2483.836,2099.102,2477.375,2091.262,2477.539
				z"/>
			<polygon style="fill:#FFFFFF;" points="2050.402,2727.251 833.508,2802.196 833.508,2598.89 2050.402,2557.675 			"/>
			
				<linearGradient id="SVGID_00000173142403630820051800000009772735516996291000_" gradientUnits="userSpaceOnUse" x1="1353.1095" y1="2402.4836" x2="1509.3431" y2="2999.2961">
				<stop  offset="0" style="stop-color:#FFC444"/>
				<stop  offset="0.9964" style="stop-color:#F36F56"/>
			</linearGradient>
			<path style="fill:url(#SVGID_00000173142403630820051800000009772735516996291000_);" d="M2050.402,2727.251l-1216.894,74.945
				V2671.5c45.49,86.34,93.438,103.144,129.243,101.987c49.922-1.613,76.564-38.206,150.584-43.125
				c72.277-4.802,96.391,27.25,149.467,23.024c99.153-7.895,125.713-130.334,203.992-134.33
				c61.167-3.123,102.047,69.516,154.717,63.91c38.072-4.053,47.22-45.509,75.784-46.354c25.71-0.762,26.792,32.801,60.377,34.247
				c48.73,2.098,95.575-66.822,161.062-69.916c35.811-1.692,79.97,16.203,131.669,80.612
				C2050.402,2717.891,2050.402,2690.913,2050.402,2727.251z"/>
			<path style="fill:#FFFFFF;" d="M801.582,2527.71c0,4.394-4.16,8.06-9.297,8.189c-5.144,0.129-9.32-3.336-9.32-7.741
				c0-4.405,4.176-8.072,9.32-8.19C797.422,2519.85,801.582,2523.316,801.582,2527.71z"/>
		</g>
	</g>
</g>
</svg>
